<svg width="1254" height="689" viewBox="0 0 1254 689" fill="none" xmlns="http://www.w3.org/2000/svg">
<g id="0407">
<g id="figure 27">
<rect id="Rectangle 409" x="1.00489" y="0.995627" width="17.7232" height="17.9752" transform="matrix(0.99999 -0.0043614 0.00489649 0.999988 429.868 271.09)" fill="white" stroke="#EB3333" stroke-width="2"/>
<rect id="Rectangle 410" x="1.00489" y="0.995627" width="17.7232" height="17.9752" transform="matrix(0.99999 -0.0043614 0.00489649 0.999988 429.868 271.09)" fill="white" stroke="#EB3333" stroke-width="2"/>
<path id="23" d="M439.723 277.396V279.092L437.906 282.677V282.99H439.723V284H436.846V282.536L438.663 278.951V277.941H437.906V278.951H436.846V277.396C436.846 277.123 437.027 276.931 437.31 276.931H439.259C439.542 276.931 439.723 277.123 439.723 277.396ZM441.167 284V280.769L442.015 277.941H440.278V276.931H443.106V277.84L442.227 280.769V284H441.167Z" fill="#EB3333"/>
</g>
<g id="figure 27_2">
<rect id="Rectangle 409_2" x="1.00489" y="0.995627" width="17.7232" height="17.9752" transform="matrix(0.99999 -0.0043614 0.00489649 0.999988 431.868 302.09)" fill="white" stroke="#EB3333" stroke-width="2"/>
<rect id="Rectangle 410_2" x="1.00489" y="0.995627" width="17.7232" height="17.9752" transform="matrix(0.99999 -0.0043614 0.00489649 0.999988 431.868 302.09)" fill="white" stroke="#EB3333" stroke-width="2"/>
<path id="23_2" d="M440.723 308.395V310.091L438.906 313.676V313.989H440.723V314.999H437.846V313.535L439.663 309.95V308.94H438.906V309.95H437.846V308.395C437.846 308.122 438.027 307.93 438.31 307.93H440.259C440.542 307.93 440.723 308.122 440.723 308.395ZM442.167 314.999V311.768L443.015 308.94H441.278V307.93H444.106V308.839L443.227 311.768V314.999H442.167Z" fill="#EB3333"/>
</g>
<g id="figure 20">
<rect id="Rectangle 401" x="654" y="270" width="30.7076" height="53.1065" fill="white" stroke="#EB3333" stroke-width="2"/>
<path id="20" d="M668.948 292.597V294.31L667.113 297.928V298.244H668.948V299.264H666.043V297.786L667.877 294.167V293.148H667.113V294.167H666.043V292.597C666.043 292.322 666.226 292.128 666.511 292.128H668.479C668.764 292.128 668.948 292.322 668.948 292.597ZM670.782 298.244H671.546V293.148H670.782V298.244ZM672.148 299.264H670.181C669.895 299.264 669.712 299.07 669.712 298.795V292.597C669.712 292.322 669.895 292.128 670.181 292.128H672.148C672.433 292.128 672.617 292.322 672.617 292.597V298.795C672.617 299.07 672.433 299.264 672.148 299.264Z" fill="#EB3333"/>
</g>
<g id="figure 21-4">
<rect id="Rectangle 401_2" x="726" y="169.952" width="30.7076" height="43.8582" fill="white" stroke="#EB3333" stroke-width="2"/>
<path id="21" d="M741.659 188.645V190.357L739.825 193.976V194.292H741.659V195.311H738.754V193.833L740.589 190.214V189.195H739.825V190.214H738.754V188.645C738.754 188.369 738.938 188.176 739.223 188.176H741.191C741.476 188.176 741.659 188.369 741.659 188.645ZM742.322 189.195V188.176H743.851V195.311H742.78V189.195H742.322Z" fill="#EB3333"/>
</g>
<g id="figure 21-3">
<rect id="Rectangle 401_3" x="762.268" y="167" width="41.9038" height="28.1135" fill="white" stroke="#EB3333" stroke-width="2"/>
<path id="21_2" d="M781.264 178.142V179.855L779.429 183.473V183.789H781.264V184.809H778.359V183.331L780.194 179.712V178.693H779.429V179.712H778.359V178.142C778.359 177.867 778.542 177.673 778.828 177.673H780.795C781.08 177.673 781.264 177.867 781.264 178.142ZM781.926 178.693V177.673H783.455V184.809H782.385V178.693H781.926Z" fill="#EB3333"/>
</g>
<g id="figure 21-2">
<rect id="Rectangle 401_4" x="762.268" y="204.393" width="41.9038" height="32.4415" fill="white" stroke="#EB3333" stroke-width="2"/>
<path id="21_3" d="M781.264 217.233V218.945L779.429 222.564V222.88H781.264V223.899H778.359V222.421L780.194 218.802V217.783H779.429V218.802H778.359V217.233C778.359 216.957 778.542 216.764 778.828 216.764H780.795C781.08 216.764 781.264 216.957 781.264 217.233ZM781.926 217.783V216.764H783.455V223.899H782.385V217.783H781.926Z" fill="#EB3333"/>
</g>
<g id="figure 21-1">
<rect id="Rectangle 401_5" x="810.944" y="202.426" width="20.9063" height="32.4415" fill="white" stroke="#EB3333" stroke-width="2"/>
<path id="21_4" d="M821.768 216.52V218.232L819.933 221.851V222.167H821.768V223.186H818.863V221.708L820.697 218.089V217.07H819.933V218.089H818.863V216.52C818.863 216.244 819.046 216.051 819.332 216.051H821.299C821.584 216.051 821.768 216.244 821.768 216.52ZM822.43 217.07V216.051H823.959V223.186H822.889V217.07H822.43Z" fill="#EB3333"/>
</g>
<g id="figure 26">
<rect id="Rectangle 401_6" x="0.0442885" y="1.43493" width="12.571" height="12.0145" transform="matrix(0.718057 0.695985 -0.673768 0.738943 461.502 232.136)" fill="white" stroke="#EB3333" stroke-width="2"/>
<path id="26" d="M460.662 238.773V240.486L458.828 244.104V244.42H460.662V245.439H457.757V243.961L459.592 240.343V239.324H458.828V240.343H457.757V238.773C457.757 238.498 457.941 238.304 458.226 238.304H460.194C460.479 238.304 460.662 238.498 460.662 238.773ZM463.261 242.076H462.497V244.42H463.261V242.076ZM464.332 238.773V240.343H463.261V239.324H462.497V241.056H463.863C464.148 241.056 464.332 241.25 464.332 241.525V244.971C464.332 245.246 464.148 245.439 463.863 245.439H461.895C461.61 245.439 461.427 245.246 461.427 244.971V238.773C461.427 238.498 461.61 238.304 461.895 238.304H463.863C464.148 238.304 464.332 238.498 464.332 238.773Z" fill="#EB3333"/>
</g>
<g id="figure 9">
<rect id="Rectangle 401_7" x="0.0319635" y="1.43527" width="10.9712" height="10.1794" transform="matrix(0.712043 0.702136 -0.68008 0.733138 465.016 320.206)" fill="white" stroke="#EB3333" stroke-width="2"/>
<path id="9" d="M464.162 328.186H464.926V326.148H464.162V328.186ZM463.091 328.737V325.597C463.091 325.322 463.275 325.128 463.56 325.128H465.527C465.813 325.128 465.996 325.322 465.996 325.597V331.795C465.996 332.07 465.813 332.264 465.527 332.264H463.56C463.275 332.264 463.091 332.07 463.091 331.795V329.919H464.162V331.244H464.926V329.206H463.56C463.275 329.206 463.091 329.012 463.091 328.737Z" fill="#EB3333"/>
</g>
<g id="figure 10-2">
<rect id="Rectangle 401_8" x="0.438252" y="1.36293" width="10.864" height="10.9186" transform="matrix(0.88388 0.467713 -0.445629 0.895218 474.415 358.938)" fill="white" stroke="#EB3333" stroke-width="2"/>
<path id="10" d="M473.683 365.308V364.289H475.212V371.424H474.142V365.308H473.683ZM477.149 370.405H477.914V365.308H477.149V370.405ZM478.515 371.424H476.548C476.263 371.424 476.079 371.23 476.079 370.955V364.757C476.079 364.482 476.263 364.289 476.548 364.289H478.515C478.801 364.289 478.984 364.482 478.984 364.757V370.955C478.984 371.23 478.801 371.424 478.515 371.424Z" fill="#EB3333"/>
</g>
<g id="figure 10-1">
<rect id="Rectangle 401_9" x="1.01812" y="1.00652" width="10.864" height="21.651" transform="matrix(0.999978 0.00668215 0.0181415 0.999835 489.778 405.993)" fill="white" stroke="#EB3333" stroke-width="2"/>
<path id="10_2" d="M493.569 415.805V414.786H495.098V421.921H494.028V415.805H493.569ZM497.036 420.902H497.8V415.805H497.036V420.902ZM498.402 421.921H496.434C496.149 421.921 495.965 421.727 495.965 421.452V415.255C495.965 414.979 496.149 414.786 496.434 414.786H498.402C498.687 414.786 498.87 414.979 498.87 415.255V421.452C498.87 421.727 498.687 421.921 498.402 421.921Z" fill="#EB3333"/>
</g>
<g id="figure 17">
<rect id="Rectangle 401_10" x="602.054" y="250" width="12.3602" height="12.2136" fill="white" stroke="#EB3333" stroke-width="2"/>
<path id="17" d="M605.798 253.391V252.372H607.327V259.507H606.257V253.391H605.798ZM608.888 259.507V256.245L609.744 253.391H607.991V252.372H610.845V253.289L609.958 256.245V259.507H608.888Z" fill="#EB3333"/>
</g>
<g id="figure 14">
<rect id="Rectangle 401_11" x="616.054" y="299" width="12.3602" height="12.2136" fill="white" stroke="#EB3333" stroke-width="2"/>
<path id="14" d="M619.49 302.39V301.371H621.019V308.506H619.948V302.39H619.49ZM624.638 308.506H623.568V307.181H621.784V306.263L623.19 301.371H624.312L622.936 306.161H623.568V305.244L624.638 305.04V306.161H625.046V307.181H624.638V308.506Z" fill="#EB3333"/>
</g>
<g id="figure 16">
<rect id="Rectangle 401_12" x="574" y="337" width="17" height="11.7766" fill="white" stroke="#EB3333" stroke-width="2"/>
<path id="16" d="M579.18 340.936V339.917H580.709V347.052H579.638V340.936H579.18ZM583.411 343.688H582.646V346.032H583.411V343.688ZM584.481 340.385V341.955H583.411V340.936H582.646V342.669H584.012C584.297 342.669 584.481 342.862 584.481 343.138V346.583C584.481 346.858 584.297 347.052 584.012 347.052H582.045C581.759 347.052 581.576 346.858 581.576 346.583V340.385C581.576 340.11 581.759 339.917 582.045 339.917H584.012C584.297 339.917 584.481 340.11 584.481 340.385Z" fill="#EB3333"/>
</g>
<g id="figure 6">
<rect id="Rectangle 401_13" x="1.34332" y="-0.378655" width="20.0252" height="33.5416" transform="matrix(0.477336 -0.878721 0.865988 0.500065 440.03 422.346)" fill="white" stroke="#EB3333" stroke-width="2"/>
<path id="6" d="M459.127 421.636H458.363V423.981H459.127V421.636ZM460.197 418.334V419.903H459.127V418.884H458.363V420.617H459.728C460.014 420.617 460.197 420.811 460.197 421.086V424.531C460.197 424.806 460.014 425 459.728 425H457.761C457.476 425 457.292 424.806 457.292 424.531V418.334C457.292 418.058 457.476 417.865 457.761 417.865H459.728C460.014 417.865 460.197 418.058 460.197 418.334Z" fill="#EB3333"/>
</g>
<g id="figure 11">
<rect id="Rectangle 386" x="0.0279274" y="1.43536" width="11.4735" height="10.9499" transform="matrix(0.710063 0.704138 -0.682136 0.731225 494.821 335.366)" fill="white" stroke="#EB3333" stroke-width="2"/>
<path id="11" d="M492.307 342.461V341.519H493.72V348.114H492.731V342.461H492.307ZM494.428 342.461V341.519H495.841V348.114H494.852V342.461H494.428Z" fill="#EB3333"/>
</g>
<g id="figure 22">
<rect id="Rectangle 386_2" x="0.0268611" y="1.38135" width="14.2404" height="13.5632" transform="matrix(0.736333 0.676619 -0.709472 0.704733 458.029 360.39)" fill="white" stroke="#EB3333" stroke-width="2"/>
<path id="22" d="M457.102 367.92V369.503L455.406 372.848V373.14H457.102V374.082H454.416V372.716L456.112 369.371V368.429H455.406V369.371H454.416V367.92C454.416 367.666 454.586 367.487 454.85 367.487H456.668C456.932 367.487 457.102 367.666 457.102 367.92ZM460.446 367.92V369.503L458.75 372.848V373.14H460.446V374.082H457.761V372.716L459.457 369.371V368.429H458.75V369.371H457.761V367.92C457.761 367.666 457.93 367.487 458.194 367.487H460.013C460.276 367.487 460.446 367.666 460.446 367.92Z" fill="#EB3333"/>
</g>
<g id="figure 12">
<rect id="Rectangle 386_3" x="507.24" y="414.178" width="10.9184" height="10.7829" fill="white" stroke="#EB3333" stroke-width="2.35553"/>
<path id="12" d="M510.194 417.553V416.611H511.607V423.206H510.618V417.553H510.194ZM515.047 417.044V418.627L513.351 421.972V422.264H515.047V423.206H512.362V421.84L514.058 418.495V417.553H513.351V418.495H512.362V417.044C512.362 416.79 512.531 416.611 512.795 416.611H514.614C514.877 416.611 515.047 416.79 515.047 417.044Z" fill="#EB3333"/>
</g>
<g id="figure 23">
<rect id="Rectangle 409_3" x="1.00463" y="0.995391" width="11.7563" height="12.6875" transform="matrix(0.999989 -0.00459789 0.00464465 0.999989 554.999 404.068)" fill="white" stroke="#EB3333" stroke-width="2"/>
<rect id="Rectangle 410_3" x="1.00463" y="0.995391" width="11.7563" height="12.6875" transform="matrix(0.999989 -0.00459789 0.00464465 0.999989 554.999 404.068)" fill="white" stroke="#EB3333" stroke-width="2"/>
<path id="23_3" d="M561.564 408.162V409.859L559.746 413.444V413.757H561.564V414.767H558.686V413.302L560.503 409.718V408.708H559.746V409.718H558.686V408.162C558.686 407.89 558.868 407.698 559.15 407.698H561.099C561.382 407.698 561.564 407.89 561.564 408.162ZM564.734 414.767H562.785C562.502 414.767 562.321 414.575 562.321 414.302V412.444H563.381V413.757H564.138V411.252H563.078V410.313L564.037 408.708H562.371V407.698H565.148V408.607L564.179 410.243H564.734C565.017 410.243 565.199 410.435 565.199 410.707V414.302C565.199 414.575 565.017 414.767 564.734 414.767Z" fill="#EB3333"/>
</g>
<g id="figure 25">
<rect id="Rectangle 410_4" x="1.0064" y="0.996644" width="16.9645" height="12.6876" transform="matrix(0.999994 -0.00333517 0.00640311 0.999979 548.756 199.067)" fill="white" stroke="#EB3333" stroke-width="2"/>
<path id="23_4" d="M557.997 203.162V204.858L556.179 208.443V208.756H557.997V209.766H555.119V208.301L556.936 204.717V203.707H556.179V204.717H555.119V203.162C555.119 202.889 555.301 202.697 555.583 202.697H557.532C557.815 202.697 557.997 202.889 557.997 203.162ZM560.571 206.029H559.814V206.433H558.754V202.697H561.581V203.707H559.814V205.02H561.167C561.45 205.02 561.632 205.211 561.632 205.484V209.301C561.632 209.574 561.45 209.766 561.167 209.766H559.218C558.935 209.766 558.754 209.574 558.754 209.301V207.443H559.814V208.756H560.571V206.029Z" fill="#EB3333"/>
</g>
<g id="figure 25_2">
<rect id="Rectangle 410_5" x="1.00463" y="0.995391" width="11.7563" height="12.6875" transform="matrix(0.999989 -0.00459789 0.00464465 0.999989 505.999 199.068)" fill="white" stroke="#EB3333" stroke-width="2"/>
<path id="23_5" d="M512.564 203.162V204.858L510.746 208.443V208.756H512.564V209.766H509.686V208.301L511.503 204.717V203.707H510.746V204.717H509.686V203.162C509.686 202.889 509.868 202.697 510.15 202.697H512.099C512.382 202.697 512.564 202.889 512.564 203.162ZM515.138 206.029H514.381V206.433H513.321V202.697H516.148V203.707H514.381V205.02H515.734C516.017 205.02 516.199 205.211 516.199 205.484V209.301C516.199 209.574 516.017 209.766 515.734 209.766H513.785C513.502 209.766 513.321 209.574 513.321 209.301V207.443H514.381V208.756H515.138V206.029Z" fill="#EB3333"/>
</g>
<g id="figure 25_3">
<rect id="Rectangle 410_6" x="1.00463" y="0.995391" width="11.7563" height="12.6875" transform="matrix(0.999989 -0.00459789 0.00464465 0.999989 483.999 202.068)" fill="white" stroke="#EB3333" stroke-width="2"/>
<path id="23_6" d="M490.564 206.162V207.858L488.746 211.443V211.756H490.564V212.766H487.686V211.301L489.503 207.717V206.707H488.746V207.717H487.686V206.162C487.686 205.889 487.868 205.697 488.15 205.697H490.099C490.382 205.697 490.564 205.889 490.564 206.162ZM493.138 209.029H492.381V209.433H491.321V205.697H494.148V206.707H492.381V208.02H493.734C494.017 208.02 494.199 208.211 494.199 208.484V212.301C494.199 212.574 494.017 212.766 493.734 212.766H491.785C491.502 212.766 491.321 212.574 491.321 212.301V210.443H492.381V211.756H493.138V209.029Z" fill="#EB3333"/>
</g>
<g id="figure 29">
<rect id="Rectangle 410_7" x="1.00463" y="0.995391" width="11.7563" height="12.6875" transform="matrix(0.999989 -0.00459789 0.00464465 0.999989 571.999 240.068)" fill="white" stroke="#EB3333" stroke-width="2"/>
<path id="29" d="M578.564 244.162V245.858L576.746 249.443V249.756H578.564V250.766H575.686V249.301L577.503 245.717V244.707H576.746V245.717H575.686V244.162C575.686 243.889 575.868 243.697 576.15 243.697H578.099C578.382 243.697 578.564 243.889 578.564 244.162ZM580.381 246.726H581.138V244.707H580.381V246.726ZM579.321 247.272V244.162C579.321 243.889 579.502 243.697 579.785 243.697H581.734C582.017 243.697 582.199 243.889 582.199 244.162V250.301C582.199 250.574 582.017 250.766 581.734 250.766H579.785C579.502 250.766 579.321 250.574 579.321 250.301V248.443H580.381V249.756H581.138V247.736H579.785C579.502 247.736 579.321 247.544 579.321 247.272Z" fill="#EB3333"/>
</g>
<g id="figure 1">
<path id="Rectangle 409_4" d="M569.834 547.005L569.991 581.567C570.049 594.499 559.614 605.032 546.682 605.092C533.751 605.153 523.22 594.72 523.161 581.788L523.005 547.226L569.834 547.005Z" fill="white" stroke="#EB3333" stroke-width="2"/>
<path id="1" d="M545.338 568.579V567.183H547.431V576.953H545.966V568.579H545.338Z" fill="#EB3333"/>
</g>
<g id="figure 28">
<path id="Rectangle 409_5" d="M514.814 253.69L567.529 253.603C581.694 253.579 593.325 265.042 593.507 279.206C593.69 293.369 582.355 304.87 568.19 304.893L515.475 304.981C501.311 305.004 489.68 293.542 489.497 279.378C489.315 265.214 500.65 253.714 514.814 253.69Z" fill="white" stroke="#EB3333" stroke-width="2"/>
<path id="13" d="M539.521 274.871V277.216L537.009 282.171V282.603H539.521V283.999H535.544V281.975L538.056 277.021V275.625H537.009V277.021H535.544V274.871C535.544 274.494 535.795 274.229 536.186 274.229H538.879C539.27 274.229 539.521 274.494 539.521 274.871ZM544.545 279.784V283.357C544.545 283.734 544.294 283.999 543.903 283.999H541.21C540.819 283.999 540.568 283.734 540.568 283.357V279.784C540.568 279.212 540.833 278.849 541.266 278.695C540.833 278.542 540.568 278.165 540.568 277.607V274.871C540.568 274.494 540.819 274.229 541.21 274.229H543.903C544.294 274.229 544.545 274.494 544.545 274.871V277.607C544.545 278.165 544.28 278.542 543.834 278.695C544.28 278.849 544.545 279.212 544.545 279.784ZM543.08 279.393H542.033V282.603H543.08V279.393ZM542.033 277.998H543.08V275.625H542.033V277.998Z" fill="#EB3333"/>
</g>
<g id="figure 18">
<path id="Rectangle 409_6" d="M727.66 386.132L780.375 386.044C794.539 386.021 806.17 397.484 806.353 411.647C806.535 425.81 795.2 437.311 781.036 437.335L728.321 437.422C714.156 437.446 702.526 425.983 702.343 411.819C702.161 397.656 713.496 386.155 727.66 386.132Z" fill="white" stroke="#EB3333" stroke-width="2"/>
<path id="18" d="M749.226 408.066V406.671H751.32V416.44H749.854V408.066H749.226ZM756.485 412.225V415.798C756.485 416.175 756.234 416.44 755.843 416.44H753.149C752.758 416.44 752.507 416.175 752.507 415.798V412.225C752.507 411.653 752.772 411.29 753.205 411.137C752.772 410.983 752.507 410.606 752.507 410.048V407.313C752.507 406.936 752.758 406.671 753.149 406.671H755.843C756.234 406.671 756.485 406.936 756.485 407.313V410.048C756.485 410.606 756.22 410.983 755.773 411.137C756.22 411.29 756.485 411.653 756.485 412.225ZM755.019 411.835H753.973V415.045H755.019V411.835ZM753.973 410.439H755.019V408.066H753.973V410.439Z" fill="#EB3333"/>
</g>
<g id="figure 19">
<path id="Rectangle 409_7" d="M1111.13 458.76L1110.25 516.359C1110.05 530.08 1098.75 541.157 1085.03 541.1C1071.31 541.043 1060.35 529.874 1060.56 516.154L1061.44 458.555C1061.65 444.834 1072.94 433.758 1086.66 433.815C1100.39 433.872 1111.34 445.04 1111.13 458.76Z" fill="white" stroke="#EB3333" stroke-width="2"/>
<path id="18_2" d="M1081.58 484.886L1081.57 483.49L1083.66 483.477L1083.72 493.246L1082.26 493.256L1082.2 484.882L1081.58 484.886ZM1086.34 487.646L1087.39 487.639L1087.37 484.848L1086.32 484.855L1086.34 487.646ZM1084.88 488.41L1084.85 484.111C1084.85 483.734 1085.1 483.467 1085.49 483.464L1088.18 483.447C1088.57 483.444 1088.83 483.708 1088.83 484.085L1088.88 492.571C1088.88 492.947 1088.64 493.214 1088.24 493.217L1085.55 493.234C1085.16 493.237 1084.91 492.973 1084.9 492.597L1084.89 490.029L1086.35 490.019L1086.37 491.833L1087.41 491.826L1087.39 489.035L1085.52 489.047C1085.13 489.05 1084.88 488.786 1084.88 488.41Z" fill="#EB3333"/>
</g>
<g id="figure 7">
<path id="Rectangle 409_8" d="M304.053 392.105L348.192 392.032C358.155 392.015 366.336 400.078 366.464 410.041C366.592 420.003 358.62 428.092 348.656 428.109L304.518 428.182C294.554 428.199 286.374 420.136 286.245 410.174C286.117 400.211 294.09 392.122 304.053 392.105Z" fill="white" stroke="#EB3333" stroke-width="2"/>
<path id="7" d="M325.821 415.058V410.591L326.993 406.683H324.592V405.288H328.5V406.544L327.286 410.591V415.058H325.821Z" fill="#EB3333"/>
</g>
<g id="figure 4">
<rect id="Rectangle 389" x="533" y="413" width="17" height="71" fill="white" stroke="#EB3333" stroke-width="2"/>
<path id="4" d="M543.182 455.041H541.717V453.227H539.274V451.97L541.2 445.271H542.735L540.851 451.831H541.717V450.575L543.182 450.296V451.831H543.74V453.227H543.182V455.041Z" fill="#EB3333"/>
</g>
<g id="figure 13">
<rect id="Rectangle 389_2" x="529" y="340" width="28" height="17.2704" fill="white" stroke="#EB3333" stroke-width="2"/>
<path id="13_2" d="M539.311 344.619V343.223H541.405V352.993H539.939V344.619H539.311ZM545.928 352.993H543.234C542.844 352.993 542.592 352.728 542.592 352.351V349.783H544.058V351.597H545.105V348.136H543.639V346.838L544.965 344.619H542.662V343.223H546.5V344.479L545.16 346.74H545.928C546.319 346.74 546.57 347.006 546.57 347.382V352.351C546.57 352.728 546.319 352.993 545.928 352.993Z" fill="#EB3333"/>
</g>
<g id="figure 24">
<rect id="Rectangle 389_3" x="524" y="186" width="21" height="15.1182" fill="white" stroke="#EB3333" stroke-width="2"/>
<path id="24" d="M533.841 189.418V191.763L531.329 196.718V197.15H533.841V198.546H529.864V196.522L532.376 191.567V190.172H531.329V191.567H529.864V189.418C529.864 189.041 530.115 188.776 530.506 188.776H533.199C533.59 188.776 533.841 189.041 533.841 189.418ZM538.656 198.546H537.191V196.731H534.748V195.475L536.674 188.776H538.209L536.325 195.336H537.191V194.08L538.656 193.801V195.336H539.214V196.731H538.656V198.546Z" fill="#EB3333"/>
</g>
<g id="figure 5">
<rect id="Rectangle 389_4" x="565.991" y="421" width="20.2139" height="83" fill="white" stroke="#EB3333" stroke-width="2"/>
<path id="5" d="M576.321 455.171H575.274V455.729H573.809V450.565H577.717V451.961H575.274V453.775H577.144C577.535 453.775 577.786 454.04 577.786 454.417V459.693C577.786 460.07 577.535 460.335 577.144 460.335H574.451C574.06 460.335 573.809 460.07 573.809 459.693V457.125H575.274V458.939H576.321V455.171Z" fill="#EB3333"/>
</g>
<g id="figure 3">
<rect id="Rectangle 389_5" x="491.62" y="438" width="14" height="67" fill="white" stroke="#EB3333" stroke-width="2"/>
<path id="3" d="M499.672 473.449H496.978C496.587 473.449 496.336 473.184 496.336 472.807V470.239H497.801V472.054H498.848V468.592H497.383V467.294L498.709 465.075H496.406V463.679H500.244V464.935L498.904 467.196H499.672C500.062 467.196 500.314 467.462 500.314 467.839V472.807C500.314 473.184 500.062 473.449 499.672 473.449Z" fill="#EB3333"/>
</g>
<g id="figure 2">
<rect id="Rectangle 389_6" x="532.021" y="508.19" width="18.1898" height="15.6663" transform="rotate(-90 532.021 508.19)" fill="white" stroke="#EB3333" stroke-width="2"/>
<path id="2" d="M541.312 494.955V497.3L538.8 502.255V502.687H541.312V504.083H537.334V502.059L539.846 497.105V495.709H538.8V497.105H537.334V494.955C537.334 494.578 537.585 494.313 537.976 494.313H540.67C541.061 494.313 541.312 494.578 541.312 494.955Z" fill="#EB3333"/>
</g>
<g id="figure 15">
<rect id="Rectangle 382" x="1.39057" y="0.0746143" width="17.6794" height="17.2721" transform="matrix(0.656828 0.754041 0.733744 -0.679426 606.636 365.533)" fill="white" stroke="#EB3333" stroke-width="2"/>
<path id="Vector 24" d="M589.6 377.568L599.002 372.721L607.787 366.031L621.945 353.056L627.071 344.888L630.832 336.164" stroke="#EB3333" stroke-width="2"/>
<path id="15" d="M615.894 363.415V362.019H617.988V371.789H616.522V363.415H615.894ZM621.688 366.625H620.641V367.183H619.175V362.019H623.083V363.415H620.641V365.229H622.511C622.902 365.229 623.153 365.494 623.153 365.871V371.147C623.153 371.524 622.902 371.789 622.511 371.789H619.817C619.427 371.789 619.175 371.524 619.175 371.147V368.579H620.641V370.393H621.688V366.625Z" fill="#EB3333"/>
</g>
<g id="figure 8">
<rect id="Rectangle 379" x="388" y="277" width="27.5873" height="44.2501" fill="white" stroke="#EB3333" stroke-width="2"/>
<path id="8" d="M404.673 299.498V303.071C404.673 303.448 404.422 303.713 404.031 303.713H401.338C400.947 303.713 400.696 303.448 400.696 303.071V299.498C400.696 298.926 400.961 298.563 401.393 298.409C400.961 298.256 400.696 297.879 400.696 297.321V294.585C400.696 294.208 400.947 293.943 401.338 293.943H404.031C404.422 293.943 404.673 294.208 404.673 294.585V297.321C404.673 297.879 404.408 298.256 403.962 298.409C404.408 298.563 404.673 298.926 404.673 299.498ZM403.208 299.107H402.161V302.317H403.208V299.107ZM402.161 297.711H403.208V295.339H402.161V297.711Z" fill="#EB3333"/>
</g>
</g>
</svg>
