<svg width="905" height="765" viewBox="0 0 905 765" fill="none" xmlns="http://www.w3.org/2000/svg">
<path d="M1328.13 527.217C1209.46 527.366 942.292 527.464 823.621 527.613C796.118 523.557 770.494 513.861 747.838 499.664H836.483C838.263 499.813 840.044 500.109 841.875 500.208L846.821 500.456H1326.65V489.177C1212.08 488.88 949.019 488.584 834.455 488.237C755.753 479.828 694.216 413.048 694.216 332.17V-474.534H682.839V-7.96356L682.938 -1.33508V336.869L683.185 340.876C685.312 382.329 702.675 421.408 732.058 450.89C748.432 467.313 767.773 479.828 788.846 488.287H731.564C684.917 452.077 654.742 395.586 654.742 332.12L654.89 -553.681H643.513V335.979L643.711 340.826C646.135 399.197 673.193 451.632 714.498 488.287H671.214C634.856 446.438 612.646 391.975 612.646 332.318L612.745 -553.681H601.367V337.166L601.516 341.074C603.445 396.575 623.875 447.576 656.622 488.287H629.415L622.786 488.386H621.797C591.276 443.717 573.369 389.749 573.369 331.675V-474.534H561.992V-7.96356L562.091 -1.33508L562.239 340.48C563.871 394.894 580.789 445.449 608.54 488.386L280.971 488.485C128.416 493.036 5.0456 616.109 0.148394 768.664L0 773.66V1105.09H11.2784V778.162C11.2784 624.568 136.231 499.615 289.826 499.615H616.158C623.182 509.409 630.849 518.709 638.962 527.563H284.335L280.427 527.712C150.379 532.213 44.6686 637.627 39.8208 767.675L39.6229 772.72V1104.05H50.9013V777.123C50.9013 645.74 157.799 538.792 289.232 538.792H649.795C661.271 550.071 673.638 560.409 686.895 569.61H285.572L280.724 569.858C173.282 574.31 85.3302 661.915 80.5814 769.357L80.3339 775.145V1105.68H91.6124V778.755C91.6124 669.632 180.356 580.889 289.479 580.889H704.852C724.787 592.76 746.156 602.159 768.763 608.986H629.563L622.935 609.085H284.731L280.724 609.332C239.271 611.459 200.192 628.822 170.71 658.205C141.178 687.638 123.667 726.618 121.391 768.021L121.144 772.968V1104.3H132.422V777.37C132.422 690.804 202.863 620.363 289.43 620.363H830.794C834.751 620.66 838.61 621.204 842.617 621.303L847.613 621.451H1327.54V610.173C1210.5 609.777 945.013 609.381 827.974 608.936C792.507 605.869 759.067 596.075 728.596 580.938H833.614C836.285 581.136 838.907 581.532 841.627 581.631L846.673 581.828H1326.5V570.55H1323.83V569.61H832.377C796.316 566.791 762.579 555.957 732.8 538.842H822.385C829.26 539.881 836.235 540.573 843.26 540.919L849.047 541.167H1328.08C1328.08 536.517 1328.13 531.818 1328.18 527.168L1328.13 527.217ZM728.546 499.664C744.029 511.239 761.145 520.688 779.448 527.613H714.844C702.922 519.302 691.792 509.953 681.602 499.664H728.596H728.546ZM630.355 499.664H666.614C675.765 509.755 685.708 519.105 696.393 527.613H654.297C645.64 518.907 637.775 509.459 630.355 499.664ZM774.501 569.709H708.067C693.276 560.706 679.426 550.417 666.564 538.941H711.629C730.871 552 751.993 562.388 774.501 569.709Z" fill="white"/>
</svg>
