<svg width="857" height="765" viewBox="0 0 857 765" fill="none" xmlns="http://www.w3.org/2000/svg">
<path d="M169.7 1052.38C169.876 911.504 169.994 594.35 170.17 453.478C165.355 420.829 153.845 390.411 136.992 363.517L136.992 468.746C137.169 470.86 137.521 472.974 137.638 475.146L137.932 481.018L137.932 1050.62L124.544 1050.62C124.191 914.616 123.839 602.337 123.428 466.338C113.445 372.912 34.1715 299.863 -61.8378 299.863L-1019.46 299.863L-1019.46 286.357L-465.605 286.357L-457.737 286.475L-56.2593 286.475L-51.5029 286.768C-2.29444 289.293 44.0953 309.904 79.0931 344.785C98.5886 364.222 113.445 387.182 123.486 412.197L123.486 344.198C80.5024 288.824 13.4429 253.004 -61.8966 253.004L-1113.42 253.18L-1113.42 239.674L-57.3163 239.674L-51.5615 239.909C17.7295 242.786 79.974 274.907 123.486 323.939L123.486 272.558C73.8082 229.398 9.15624 203.032 -61.6616 203.032L-1113.42 203.149L-1113.42 189.643L-55.907 189.643L-51.2681 189.819C14.6172 192.11 75.1588 216.361 123.486 255.235L123.486 222.938L123.604 215.07L123.604 213.895C70.5787 177.664 6.51379 156.407 -62.4251 156.407L-1019.46 156.407L-1019.46 142.901L-465.605 142.901L-457.737 143.019L-51.9727 143.195C12.6207 145.133 72.6339 165.215 123.604 198.158L123.721 -190.694C129.124 -371.791 275.222 -518.242 456.319 -524.055L462.25 -524.231L855.682 -524.231L855.682 -510.843L467.593 -510.843C285.264 -510.843 136.934 -362.513 136.934 -180.183L136.934 207.201C148.561 215.539 159.6 224.641 170.111 234.272L170.111 -186.701L170.287 -191.34C175.631 -345.719 300.766 -471.206 455.144 -476.961L461.134 -477.196L854.449 -477.196L854.449 -463.807L466.36 -463.807C310.396 -463.807 183.441 -336.911 183.441 -180.888L183.441 247.132C196.829 260.755 209.102 275.435 220.024 291.173L220.024 -185.233L220.318 -190.988C225.603 -318.531 329.598 -422.937 457.141 -428.574L464.011 -428.868L856.387 -428.868L856.387 -415.48L468.298 -415.48C338.759 -415.48 233.413 -310.134 233.413 -180.594L233.413 312.488C247.506 336.153 258.663 361.521 266.767 388.356L266.767 223.114L266.884 215.246L266.884 -186.232L267.177 -190.988C269.703 -240.197 290.314 -286.586 325.194 -321.584C360.133 -356.641 406.406 -377.428 455.555 -380.129L461.428 -380.423L854.743 -380.423L854.743 -367.035L466.654 -367.035C363.891 -367.035 280.272 -283.415 280.272 -180.653L280.272 461.993C280.625 466.69 281.271 471.271 281.388 476.027L281.564 481.958L281.564 1051.67L268.176 1051.67C267.706 912.737 267.236 597.58 266.708 458.646C263.067 416.542 251.44 376.847 233.472 340.675L233.472 465.34C233.706 468.511 234.176 471.623 234.294 474.853L234.528 480.842L234.528 1050.44L221.14 1050.44L221.14 1047.27L220.024 1047.27L220.024 463.872C216.677 421.064 203.817 381.016 183.5 345.666L183.5 452.01C184.733 460.172 185.555 468.452 185.966 476.79L186.26 483.661L186.26 1052.32C180.74 1052.32 175.161 1052.38 169.641 1052.44L169.7 1052.38ZM136.992 340.616C150.733 358.995 161.949 379.313 170.17 401.04L170.17 324.35C160.305 310.198 149.207 296.986 136.992 284.889L136.992 340.675L136.992 340.616ZM136.992 224.054L136.992 267.097C148.972 277.96 160.07 289.763 170.17 302.447L170.17 252.475C159.835 242.199 148.619 232.862 136.992 224.054ZM220.142 395.168L220.142 316.305C209.455 298.748 197.24 282.305 183.617 267.038L183.617 320.533C199.12 343.376 211.451 368.45 220.142 395.168Z" fill="white"/>
</svg>
